M48
;DRILL file {kicad (2015-01-17 BZR 5377)-product} date Fri 28 Aug 2015 03:12:12 PM ART
;FORMAT={-:-/ absolute / inch / decimal}
FMAT,2
INCH,TZ
T1C0.025
T2C0.040
T3C0.120
%
G90
G05
M72
T1
X3.09Y-3.66
X3.1275Y-3.9
X3.2Y-4.0725
X3.26Y-4.32
X3.3625Y-3.55
X3.405Y-4.38
X3.465Y-4.225
X3.5Y-3.39
X3.5Y-4.66
X3.76Y-4.195
X3.785Y-4.7075
X3.815Y-4.34
X3.8425Y-3.7725
X3.875Y-4.095
X3.885Y-4.57
X3.935Y-4.575
X3.96Y-3.96
X3.99Y-3.8375
X3.995Y-4.195
X4.Y-4.37
X4.005Y-4.625
X4.025Y-4.72
X4.14Y-4.57
X4.145Y-4.22
X4.1525Y-3.8375
X4.17Y-3.3
X4.1775Y-4.64
X4.18Y-4.77
X4.22Y-4.115
X4.235Y-3.9025
X4.27Y-4.36
X4.275Y-4.225
X4.31Y-3.4075
X4.3475Y-4.82
X4.395Y-4.085
X4.4225Y-4.47
X4.435Y-4.3975
X4.5Y-3.98
X4.53Y-4.1875
X4.575Y-4.7175
X4.58Y-4.5225
X4.7Y-3.6525
X4.7Y-4.26
X4.745Y-4.47
X4.76Y-4.085
X4.7975Y-4.67
X4.81Y-4.38
X4.845Y-3.705
X4.89Y-4.26
X4.9075Y-4.67
X5.025Y-4.53
X5.025Y-4.58
T2
X3.38Y-3.29
X3.48Y-3.29
X3.58Y-3.29
X4.46Y-4.8
X4.56Y-4.8
X4.66Y-4.8
X4.76Y-4.8
X4.86Y-4.8
X4.96Y-4.8
X5.06Y-4.8
X5.0725Y-3.2875
X5.0725Y-3.3875
X5.0725Y-3.4875
X5.0725Y-3.5875
X5.0725Y-3.6875
X5.0725Y-3.7875
X5.0725Y-3.8875
X5.0725Y-3.9875
X5.0725Y-4.0875
X5.0725Y-4.1875
X5.16Y-4.8
X5.1725Y-3.2875
X5.1725Y-3.3875
X5.1725Y-3.4875
X5.1725Y-3.5875
X5.1725Y-3.6875
X5.1725Y-3.7875
X5.1725Y-3.8875
X5.1725Y-3.9875
X5.1725Y-4.0875
X5.1725Y-4.1875
X5.1725Y-4.3425
X5.1725Y-4.4425
X5.1725Y-4.5425
X5.1725Y-4.6425
T3
X3.12Y-3.18
X3.12Y-4.78
X5.32Y-3.18
X5.32Y-4.78
T0
M30
