G04 #@! TF.FileFunction,Soldermask,Top*
%FSLAX46Y46*%
G04 Gerber Fmt 4.6, Leading zero omitted, Abs format (unit mm)*
G04 Created by KiCad (PCBNEW (2015-01-17 BZR 5377)-product) date Fri 28 Aug 2015 03:12:13 PM ART*
%MOMM*%
G01*
G04 APERTURE LIST*
%ADD10C,0.100000*%
%ADD11R,1.500000X1.250000*%
%ADD12R,1.250000X1.500000*%
%ADD13R,2.999740X1.501140*%
%ADD14R,0.910000X1.220000*%
%ADD15R,1.198880X1.198880*%
%ADD16R,1.348740X0.398780*%
%ADD17R,1.501140X2.100580*%
%ADD18R,1.899920X2.400300*%
%ADD19R,1.899920X1.800860*%
%ADD20R,1.727200X2.032000*%
%ADD21O,1.727200X2.032000*%
%ADD22R,2.032000X1.727200*%
%ADD23O,2.032000X1.727200*%
%ADD24R,1.727200X1.727200*%
%ADD25O,1.727200X1.727200*%
%ADD26R,2.400000X0.750000*%
%ADD27R,2.400000X0.740000*%
%ADD28R,1.300000X1.500000*%
%ADD29R,1.500000X1.300000*%
%ADD30R,0.599440X2.199640*%
%ADD31R,0.599440X0.701040*%
%ADD32R,1.000760X0.701040*%
%ADD33R,1.501140X0.254000*%
%ADD34R,0.254000X1.501140*%
%ADD35R,2.032000X3.810000*%
%ADD36R,2.032000X1.397000*%
%ADD37R,1.400000X1.200000*%
%ADD38C,4.064000*%
G04 APERTURE END LIST*
D10*
X137414000Y-78486000D02*
X136906000Y-78486000D01*
X137414000Y-123698000D02*
X137414000Y-78486000D01*
X136906000Y-123698000D02*
X137414000Y-123698000D01*
X76962000Y-78486000D02*
X76962000Y-81534000D01*
X136906000Y-78486000D02*
X76962000Y-78486000D01*
X133350000Y-123698000D02*
X136906000Y-123698000D01*
X76962000Y-81534000D02*
X76962000Y-112014000D01*
X76962000Y-123698000D02*
X133350000Y-123698000D01*
X76962000Y-112014000D02*
X76962000Y-123698000D01*
D11*
X93746000Y-98044000D03*
X96246000Y-98044000D03*
D12*
X91186000Y-98064000D03*
X91186000Y-100564000D03*
X98298000Y-83840000D03*
X98298000Y-86340000D03*
D11*
X109748000Y-100838000D03*
X112248000Y-100838000D03*
X91166000Y-102870000D03*
X88666000Y-102870000D03*
D13*
X89187020Y-105410000D03*
X93184980Y-105410000D03*
D11*
X93198000Y-113792000D03*
X90698000Y-113792000D03*
D13*
X89187020Y-111252000D03*
X93184980Y-111252000D03*
D12*
X98996500Y-101707000D03*
X98996500Y-99207000D03*
D11*
X93198000Y-116078000D03*
X90698000Y-116078000D03*
X115082000Y-110744000D03*
X117582000Y-110744000D03*
D12*
X104267000Y-117876000D03*
X104267000Y-120376000D03*
X108204000Y-117876000D03*
X108204000Y-120376000D03*
D11*
X115082000Y-107950000D03*
X117582000Y-107950000D03*
D13*
X80805020Y-92964000D03*
X84802980Y-92964000D03*
D11*
X109748000Y-98679000D03*
X112248000Y-98679000D03*
D13*
X80805020Y-88392000D03*
X84802980Y-88392000D03*
D14*
X81423000Y-96774000D03*
X84693000Y-96774000D03*
X81423000Y-99060000D03*
X84693000Y-99060000D03*
D15*
X117251480Y-96520000D03*
X119349520Y-96520000D03*
X117251480Y-94488000D03*
X119349520Y-94488000D03*
D11*
X81300000Y-117094000D03*
X83800000Y-117094000D03*
X86086000Y-104394000D03*
X83586000Y-104394000D03*
X86086000Y-102044500D03*
X83586000Y-102044500D03*
D12*
X87630000Y-114574000D03*
X87630000Y-117074000D03*
D16*
X81280000Y-108712000D03*
X81280000Y-108061760D03*
X81280000Y-109362240D03*
X81280000Y-107411520D03*
X81280000Y-110012480D03*
D17*
X81280000Y-105511600D03*
X81280000Y-111912400D03*
D18*
X78630780Y-104912160D03*
X78630780Y-112511840D03*
D19*
X78630780Y-107561380D03*
X78630780Y-109862620D03*
D20*
X131064000Y-121920000D03*
D21*
X128524000Y-121920000D03*
X125984000Y-121920000D03*
X123444000Y-121920000D03*
X120904000Y-121920000D03*
X118364000Y-121920000D03*
X115824000Y-121920000D03*
X113284000Y-121920000D03*
D22*
X131381500Y-117919500D03*
D23*
X131381500Y-115379500D03*
X131381500Y-112839500D03*
X131381500Y-110299500D03*
D24*
X128841500Y-83502500D03*
D25*
X131381500Y-83502500D03*
X128841500Y-86042500D03*
X131381500Y-86042500D03*
X128841500Y-88582500D03*
X131381500Y-88582500D03*
X128841500Y-91122500D03*
X131381500Y-91122500D03*
X128841500Y-93662500D03*
X131381500Y-93662500D03*
X128841500Y-96202500D03*
X131381500Y-96202500D03*
X128841500Y-98742500D03*
X131381500Y-98742500D03*
X128841500Y-101282500D03*
X131381500Y-101282500D03*
X128841500Y-103822500D03*
X131381500Y-103822500D03*
X128841500Y-106362500D03*
X131381500Y-106362500D03*
D26*
X118282000Y-118618000D03*
D27*
X114382000Y-118618000D03*
D26*
X118282000Y-117348000D03*
D27*
X114382000Y-117348000D03*
X118282000Y-116078000D03*
X114382000Y-116078000D03*
X118282000Y-114808000D03*
D26*
X114382000Y-114808000D03*
X118282000Y-113538000D03*
D27*
X114382000Y-113538000D03*
D20*
X90932000Y-83566000D03*
D21*
X88392000Y-83566000D03*
X85852000Y-83566000D03*
D28*
X105918000Y-95838000D03*
X105918000Y-93138000D03*
X101346000Y-95838000D03*
X101346000Y-93138000D03*
X103632000Y-93138000D03*
X103632000Y-95838000D03*
X99060000Y-95838000D03*
X99060000Y-93138000D03*
D29*
X89836000Y-107950000D03*
X92536000Y-107950000D03*
X90598000Y-118364000D03*
X93298000Y-118364000D03*
X123110000Y-96202500D03*
X125810000Y-96202500D03*
X123110000Y-103822500D03*
X125810000Y-103822500D03*
X123110000Y-106362500D03*
X125810000Y-106362500D03*
X109648000Y-96520000D03*
X112348000Y-96520000D03*
X109648000Y-94488000D03*
X112348000Y-94488000D03*
D30*
X100711000Y-88958420D03*
X101981000Y-88958420D03*
X103251000Y-88958420D03*
X104521000Y-88958420D03*
X104521000Y-83761580D03*
X103251000Y-83761580D03*
X101981000Y-83761580D03*
X100711000Y-83761580D03*
D31*
X83886040Y-107193080D03*
X85785960Y-107193080D03*
X85785960Y-109593380D03*
D32*
X84086700Y-109593380D03*
D33*
X99151440Y-104965500D03*
X99151440Y-105465880D03*
X99151440Y-105966260D03*
X99151440Y-106466640D03*
X99151440Y-106967020D03*
X99151440Y-107464860D03*
X99151440Y-107965240D03*
X99151440Y-108465620D03*
X99151440Y-108963460D03*
X99151440Y-109463840D03*
X99151440Y-109964220D03*
X99151440Y-110462060D03*
X99151440Y-110962440D03*
X99151440Y-111462820D03*
X99151440Y-111963200D03*
X99151440Y-112463580D03*
D34*
X101150420Y-114462560D03*
X101650800Y-114462560D03*
X102151180Y-114462560D03*
X102651560Y-114462560D03*
X103151940Y-114462560D03*
X103649780Y-114462560D03*
X104150160Y-114462560D03*
X104650540Y-114462560D03*
X105148380Y-114462560D03*
X105648760Y-114462560D03*
X106149140Y-114462560D03*
X106646980Y-114462560D03*
X107147360Y-114462560D03*
X107647740Y-114462560D03*
X108148120Y-114462560D03*
X108648500Y-114462560D03*
D33*
X110647480Y-112463580D03*
X110647480Y-111963200D03*
X110647480Y-111462820D03*
X110647480Y-110962440D03*
X110647480Y-110462060D03*
X110647480Y-109964220D03*
X110647480Y-109463840D03*
X110647480Y-108963460D03*
X110647480Y-108465620D03*
X110647480Y-107965240D03*
X110647480Y-107464860D03*
X110647480Y-106967020D03*
X110647480Y-106466640D03*
X110647480Y-105966260D03*
X110647480Y-105465880D03*
X110647480Y-104965500D03*
D34*
X108648500Y-102966520D03*
X108148120Y-102966520D03*
X107647740Y-102966520D03*
X107147360Y-102966520D03*
X106646980Y-102966520D03*
X106149140Y-102966520D03*
X105648760Y-102966520D03*
X105148380Y-102966520D03*
X104650540Y-102966520D03*
X104150160Y-102966520D03*
X103649780Y-102966520D03*
X103151940Y-102966520D03*
X102651560Y-102966520D03*
X102151180Y-102966520D03*
X101650800Y-102966520D03*
X101150420Y-102966520D03*
D35*
X95504000Y-90170000D03*
D36*
X88900000Y-90170000D03*
X88900000Y-92456000D03*
X88900000Y-87884000D03*
D37*
X93726000Y-102616000D03*
X96126000Y-102616000D03*
X93726000Y-100716000D03*
X96126000Y-100716000D03*
D38*
X79248000Y-121412000D03*
X135128000Y-80772000D03*
X79248000Y-80772000D03*
X135128000Y-121412000D03*
M02*
