G04 #@! TF.FileFunction,Legend,Top*
%FSLAX46Y46*%
G04 Gerber Fmt 4.6, Leading zero omitted, Abs format (unit mm)*
G04 Created by KiCad (PCBNEW (2015-01-17 BZR 5377)-product) date Fri 28 Aug 2015 03:12:13 PM ART*
%MOMM*%
G01*
G04 APERTURE LIST*
%ADD10C,0.100000*%
%ADD11C,0.200000*%
%ADD12C,0.300000*%
%ADD13C,0.150000*%
%ADD14C,0.177800*%
%ADD15C,0.203200*%
%ADD16C,0.066040*%
%ADD17C,0.152400*%
%ADD18C,0.304800*%
%ADD19C,0.508000*%
G04 APERTURE END LIST*
D10*
D11*
X83921715Y-80426000D02*
X83807429Y-80368857D01*
X83636000Y-80368857D01*
X83464572Y-80426000D01*
X83350286Y-80540286D01*
X83293143Y-80654571D01*
X83236000Y-80883143D01*
X83236000Y-81054571D01*
X83293143Y-81283143D01*
X83350286Y-81397429D01*
X83464572Y-81511714D01*
X83636000Y-81568857D01*
X83750286Y-81568857D01*
X83921715Y-81511714D01*
X83978858Y-81454571D01*
X83978858Y-81054571D01*
X83750286Y-81054571D01*
X84493143Y-81568857D02*
X84493143Y-80368857D01*
X85178858Y-81568857D01*
X85178858Y-80368857D01*
X85750286Y-81568857D02*
X85750286Y-80368857D01*
X86036001Y-80368857D01*
X86207429Y-80426000D01*
X86321715Y-80540286D01*
X86378858Y-80654571D01*
X86436001Y-80883143D01*
X86436001Y-81054571D01*
X86378858Y-81283143D01*
X86321715Y-81397429D01*
X86207429Y-81511714D01*
X86036001Y-81568857D01*
X85750286Y-81568857D01*
X88163429Y-80368857D02*
X87592000Y-80368857D01*
X87534857Y-80940286D01*
X87592000Y-80883143D01*
X87706286Y-80826000D01*
X87992000Y-80826000D01*
X88106286Y-80883143D01*
X88163429Y-80940286D01*
X88220572Y-81054571D01*
X88220572Y-81340286D01*
X88163429Y-81454571D01*
X88106286Y-81511714D01*
X87992000Y-81568857D01*
X87706286Y-81568857D01*
X87592000Y-81511714D01*
X87534857Y-81454571D01*
X88563429Y-80368857D02*
X88963429Y-81568857D01*
X89363429Y-80368857D01*
X90176572Y-80368857D02*
X90919429Y-80368857D01*
X90519429Y-80826000D01*
X90690857Y-80826000D01*
X90805143Y-80883143D01*
X90862286Y-80940286D01*
X90919429Y-81054571D01*
X90919429Y-81340286D01*
X90862286Y-81454571D01*
X90805143Y-81511714D01*
X90690857Y-81568857D01*
X90348000Y-81568857D01*
X90233714Y-81511714D01*
X90176572Y-81454571D01*
X91433714Y-81454571D02*
X91490857Y-81511714D01*
X91433714Y-81568857D01*
X91376571Y-81511714D01*
X91433714Y-81454571D01*
X91433714Y-81568857D01*
X91890858Y-80368857D02*
X92633715Y-80368857D01*
X92233715Y-80826000D01*
X92405143Y-80826000D01*
X92519429Y-80883143D01*
X92576572Y-80940286D01*
X92633715Y-81054571D01*
X92633715Y-81340286D01*
X92576572Y-81454571D01*
X92519429Y-81511714D01*
X92405143Y-81568857D01*
X92062286Y-81568857D01*
X91948000Y-81511714D01*
X91890858Y-81454571D01*
X92976572Y-80368857D02*
X93376572Y-81568857D01*
X93776572Y-80368857D01*
X133820001Y-113572857D02*
X133420001Y-113001429D01*
X133134286Y-113572857D02*
X133134286Y-112372857D01*
X133591429Y-112372857D01*
X133705715Y-112430000D01*
X133762858Y-112487143D01*
X133820001Y-112601429D01*
X133820001Y-112772857D01*
X133762858Y-112887143D01*
X133705715Y-112944286D01*
X133591429Y-113001429D01*
X133134286Y-113001429D01*
X134220001Y-112372857D02*
X135020001Y-113572857D01*
X135020001Y-112372857D02*
X134220001Y-113572857D01*
X135477143Y-113572857D02*
X135477143Y-112372857D01*
X135762858Y-112372857D01*
X135934286Y-112430000D01*
X136048572Y-112544286D01*
X136105715Y-112658571D01*
X136162858Y-112887143D01*
X136162858Y-113058571D01*
X136105715Y-113287143D01*
X136048572Y-113401429D01*
X135934286Y-113515714D01*
X135762858Y-113572857D01*
X135477143Y-113572857D01*
X133105715Y-114912857D02*
X133791429Y-114912857D01*
X133448572Y-116112857D02*
X133448572Y-114912857D01*
X134077144Y-114912857D02*
X134877144Y-116112857D01*
X134877144Y-114912857D02*
X134077144Y-116112857D01*
X135334286Y-116112857D02*
X135334286Y-114912857D01*
X135620001Y-114912857D01*
X135791429Y-114970000D01*
X135905715Y-115084286D01*
X135962858Y-115198571D01*
X136020001Y-115427143D01*
X136020001Y-115598571D01*
X135962858Y-115827143D01*
X135905715Y-115941429D01*
X135791429Y-116055714D01*
X135620001Y-116112857D01*
X135334286Y-116112857D01*
X133102572Y-117452857D02*
X133845429Y-117452857D01*
X133445429Y-117910000D01*
X133616857Y-117910000D01*
X133731143Y-117967143D01*
X133788286Y-118024286D01*
X133845429Y-118138571D01*
X133845429Y-118424286D01*
X133788286Y-118538571D01*
X133731143Y-118595714D01*
X133616857Y-118652857D01*
X133274000Y-118652857D01*
X133159714Y-118595714D01*
X133102572Y-118538571D01*
X134359714Y-118538571D02*
X134416857Y-118595714D01*
X134359714Y-118652857D01*
X134302571Y-118595714D01*
X134359714Y-118538571D01*
X134359714Y-118652857D01*
X134816858Y-117452857D02*
X135559715Y-117452857D01*
X135159715Y-117910000D01*
X135331143Y-117910000D01*
X135445429Y-117967143D01*
X135502572Y-118024286D01*
X135559715Y-118138571D01*
X135559715Y-118424286D01*
X135502572Y-118538571D01*
X135445429Y-118595714D01*
X135331143Y-118652857D01*
X134988286Y-118652857D01*
X134874000Y-118595714D01*
X134816858Y-118538571D01*
X135902572Y-117452857D02*
X136302572Y-118652857D01*
X136702572Y-117452857D01*
X133705715Y-109890000D02*
X133591429Y-109832857D01*
X133420000Y-109832857D01*
X133248572Y-109890000D01*
X133134286Y-110004286D01*
X133077143Y-110118571D01*
X133020000Y-110347143D01*
X133020000Y-110518571D01*
X133077143Y-110747143D01*
X133134286Y-110861429D01*
X133248572Y-110975714D01*
X133420000Y-111032857D01*
X133534286Y-111032857D01*
X133705715Y-110975714D01*
X133762858Y-110918571D01*
X133762858Y-110518571D01*
X133534286Y-110518571D01*
X134277143Y-111032857D02*
X134277143Y-109832857D01*
X134962858Y-111032857D01*
X134962858Y-109832857D01*
X135534286Y-111032857D02*
X135534286Y-109832857D01*
X135820001Y-109832857D01*
X135991429Y-109890000D01*
X136105715Y-110004286D01*
X136162858Y-110118571D01*
X136220001Y-110347143D01*
X136220001Y-110518571D01*
X136162858Y-110747143D01*
X136105715Y-110861429D01*
X135991429Y-110975714D01*
X135820001Y-111032857D01*
X135534286Y-111032857D01*
D12*
X96252288Y-80156857D02*
X95752288Y-80156857D01*
X95752288Y-80942571D02*
X95752288Y-79442571D01*
X96466574Y-79442571D01*
X96823716Y-79442571D02*
X97680859Y-79442571D01*
X97252288Y-80942571D02*
X97252288Y-79442571D01*
X98109430Y-79585429D02*
X98180859Y-79514000D01*
X98323716Y-79442571D01*
X98680859Y-79442571D01*
X98823716Y-79514000D01*
X98895145Y-79585429D01*
X98966573Y-79728286D01*
X98966573Y-79871143D01*
X98895145Y-80085429D01*
X98038002Y-80942571D01*
X98966573Y-80942571D01*
X99538001Y-79585429D02*
X99609430Y-79514000D01*
X99752287Y-79442571D01*
X100109430Y-79442571D01*
X100252287Y-79514000D01*
X100323716Y-79585429D01*
X100395144Y-79728286D01*
X100395144Y-79871143D01*
X100323716Y-80085429D01*
X99466573Y-80942571D01*
X100395144Y-80942571D01*
X100895144Y-79442571D02*
X101823715Y-79442571D01*
X101323715Y-80014000D01*
X101538001Y-80014000D01*
X101680858Y-80085429D01*
X101752287Y-80156857D01*
X101823715Y-80299714D01*
X101823715Y-80656857D01*
X101752287Y-80799714D01*
X101680858Y-80871143D01*
X101538001Y-80942571D01*
X101109429Y-80942571D01*
X100966572Y-80871143D01*
X100895144Y-80799714D01*
X102395143Y-79585429D02*
X102466572Y-79514000D01*
X102609429Y-79442571D01*
X102966572Y-79442571D01*
X103109429Y-79514000D01*
X103180858Y-79585429D01*
X103252286Y-79728286D01*
X103252286Y-79871143D01*
X103180858Y-80085429D01*
X102323715Y-80942571D01*
X103252286Y-80942571D01*
X103895143Y-80942571D02*
X103895143Y-79442571D01*
X103895143Y-80156857D02*
X104752286Y-80156857D01*
X104752286Y-80942571D02*
X104752286Y-79442571D01*
X107038000Y-79442571D02*
X107038000Y-80514000D01*
X106966572Y-80728286D01*
X106823715Y-80871143D01*
X106609429Y-80942571D01*
X106466572Y-80942571D01*
X107538000Y-79442571D02*
X108395143Y-79442571D01*
X107966572Y-80942571D02*
X107966572Y-79442571D01*
X108823714Y-80514000D02*
X109538000Y-80514000D01*
X108680857Y-80942571D02*
X109180857Y-79442571D01*
X109680857Y-80942571D01*
X110966571Y-79514000D02*
X110823714Y-79442571D01*
X110609428Y-79442571D01*
X110395143Y-79514000D01*
X110252285Y-79656857D01*
X110180857Y-79799714D01*
X110109428Y-80085429D01*
X110109428Y-80299714D01*
X110180857Y-80585429D01*
X110252285Y-80728286D01*
X110395143Y-80871143D01*
X110609428Y-80942571D01*
X110752285Y-80942571D01*
X110966571Y-80871143D01*
X111038000Y-80799714D01*
X111038000Y-80299714D01*
X110752285Y-80299714D01*
X112752285Y-79371143D02*
X111466571Y-81299714D01*
X114109429Y-80942571D02*
X113609429Y-80228286D01*
X113252286Y-80942571D02*
X113252286Y-79442571D01*
X113823714Y-79442571D01*
X113966572Y-79514000D01*
X114038000Y-79585429D01*
X114109429Y-79728286D01*
X114109429Y-79942571D01*
X114038000Y-80085429D01*
X113966572Y-80156857D01*
X113823714Y-80228286D01*
X113252286Y-80228286D01*
X114680857Y-80871143D02*
X114895143Y-80942571D01*
X115252286Y-80942571D01*
X115395143Y-80871143D01*
X115466572Y-80799714D01*
X115538000Y-80656857D01*
X115538000Y-80514000D01*
X115466572Y-80371143D01*
X115395143Y-80299714D01*
X115252286Y-80228286D01*
X114966572Y-80156857D01*
X114823714Y-80085429D01*
X114752286Y-80014000D01*
X114680857Y-79871143D01*
X114680857Y-79728286D01*
X114752286Y-79585429D01*
X114823714Y-79514000D01*
X114966572Y-79442571D01*
X115323714Y-79442571D01*
X115538000Y-79514000D01*
X116109428Y-79585429D02*
X116180857Y-79514000D01*
X116323714Y-79442571D01*
X116680857Y-79442571D01*
X116823714Y-79514000D01*
X116895143Y-79585429D01*
X116966571Y-79728286D01*
X116966571Y-79871143D01*
X116895143Y-80085429D01*
X116038000Y-80942571D01*
X116966571Y-80942571D01*
X117466571Y-79442571D02*
X118395142Y-79442571D01*
X117895142Y-80014000D01*
X118109428Y-80014000D01*
X118252285Y-80085429D01*
X118323714Y-80156857D01*
X118395142Y-80299714D01*
X118395142Y-80656857D01*
X118323714Y-80799714D01*
X118252285Y-80871143D01*
X118109428Y-80942571D01*
X117680856Y-80942571D01*
X117537999Y-80871143D01*
X117466571Y-80799714D01*
X118966570Y-79585429D02*
X119037999Y-79514000D01*
X119180856Y-79442571D01*
X119537999Y-79442571D01*
X119680856Y-79514000D01*
X119752285Y-79585429D01*
X119823713Y-79728286D01*
X119823713Y-79871143D01*
X119752285Y-80085429D01*
X118895142Y-80942571D01*
X119823713Y-80942571D01*
X121609427Y-80942571D02*
X121609427Y-79442571D01*
X121966570Y-79442571D01*
X122180855Y-79514000D01*
X122323713Y-79656857D01*
X122395141Y-79799714D01*
X122466570Y-80085429D01*
X122466570Y-80299714D01*
X122395141Y-80585429D01*
X122323713Y-80728286D01*
X122180855Y-80871143D01*
X121966570Y-80942571D01*
X121609427Y-80942571D01*
X123680855Y-80871143D02*
X123537998Y-80942571D01*
X123252284Y-80942571D01*
X123109427Y-80871143D01*
X123037998Y-80728286D01*
X123037998Y-80156857D01*
X123109427Y-80014000D01*
X123252284Y-79942571D01*
X123537998Y-79942571D01*
X123680855Y-80014000D01*
X123752284Y-80156857D01*
X123752284Y-80299714D01*
X123037998Y-80442571D01*
X124395141Y-80942571D02*
X124395141Y-79442571D01*
X124395141Y-80014000D02*
X124537998Y-79942571D01*
X124823712Y-79942571D01*
X124966569Y-80014000D01*
X125037998Y-80085429D01*
X125109427Y-80228286D01*
X125109427Y-80656857D01*
X125037998Y-80799714D01*
X124966569Y-80871143D01*
X124823712Y-80942571D01*
X124537998Y-80942571D01*
X124395141Y-80871143D01*
X126395141Y-79942571D02*
X126395141Y-80942571D01*
X125752284Y-79942571D02*
X125752284Y-80728286D01*
X125823712Y-80871143D01*
X125966570Y-80942571D01*
X126180855Y-80942571D01*
X126323712Y-80871143D01*
X126395141Y-80799714D01*
X127752284Y-79942571D02*
X127752284Y-81156857D01*
X127680855Y-81299714D01*
X127609427Y-81371143D01*
X127466570Y-81442571D01*
X127252284Y-81442571D01*
X127109427Y-81371143D01*
X127752284Y-80871143D02*
X127609427Y-80942571D01*
X127323713Y-80942571D01*
X127180855Y-80871143D01*
X127109427Y-80799714D01*
X127037998Y-80656857D01*
X127037998Y-80228286D01*
X127109427Y-80085429D01*
X127180855Y-80014000D01*
X127323713Y-79942571D01*
X127609427Y-79942571D01*
X127752284Y-80014000D01*
X129109427Y-79942571D02*
X129109427Y-81156857D01*
X129037998Y-81299714D01*
X128966570Y-81371143D01*
X128823713Y-81442571D01*
X128609427Y-81442571D01*
X128466570Y-81371143D01*
X129109427Y-80871143D02*
X128966570Y-80942571D01*
X128680856Y-80942571D01*
X128537998Y-80871143D01*
X128466570Y-80799714D01*
X128395141Y-80656857D01*
X128395141Y-80228286D01*
X128466570Y-80085429D01*
X128537998Y-80014000D01*
X128680856Y-79942571D01*
X128966570Y-79942571D01*
X129109427Y-80014000D01*
X130395141Y-80871143D02*
X130252284Y-80942571D01*
X129966570Y-80942571D01*
X129823713Y-80871143D01*
X129752284Y-80728286D01*
X129752284Y-80156857D01*
X129823713Y-80014000D01*
X129966570Y-79942571D01*
X130252284Y-79942571D01*
X130395141Y-80014000D01*
X130466570Y-80156857D01*
X130466570Y-80299714D01*
X129752284Y-80442571D01*
X131109427Y-80942571D02*
X131109427Y-79942571D01*
X131109427Y-80228286D02*
X131180855Y-80085429D01*
X131252284Y-80014000D01*
X131395141Y-79942571D01*
X131537998Y-79942571D01*
X107260571Y-87640571D02*
X107260571Y-88854857D01*
X107331999Y-88997714D01*
X107403428Y-89069143D01*
X107546285Y-89140571D01*
X107831999Y-89140571D01*
X107974857Y-89069143D01*
X108046285Y-88997714D01*
X108117714Y-88854857D01*
X108117714Y-87640571D01*
X108617714Y-87640571D02*
X109474857Y-87640571D01*
X109046286Y-89140571D02*
X109046286Y-87640571D01*
X109974857Y-89140571D02*
X109974857Y-87640571D01*
X110832000Y-89140571D01*
X110832000Y-87640571D01*
X111546286Y-88997714D02*
X111617714Y-89069143D01*
X111546286Y-89140571D01*
X111474857Y-89069143D01*
X111546286Y-88997714D01*
X111546286Y-89140571D01*
X112760572Y-88354857D02*
X112974858Y-88426286D01*
X113046286Y-88497714D01*
X113117715Y-88640571D01*
X113117715Y-88854857D01*
X113046286Y-88997714D01*
X112974858Y-89069143D01*
X112832000Y-89140571D01*
X112260572Y-89140571D01*
X112260572Y-87640571D01*
X112760572Y-87640571D01*
X112903429Y-87712000D01*
X112974858Y-87783429D01*
X113046286Y-87926286D01*
X113046286Y-88069143D01*
X112974858Y-88212000D01*
X112903429Y-88283429D01*
X112760572Y-88354857D01*
X112260572Y-88354857D01*
X113689143Y-88712000D02*
X114403429Y-88712000D01*
X113546286Y-89140571D02*
X114046286Y-87640571D01*
X114546286Y-89140571D01*
X116189143Y-88569143D02*
X117332000Y-88569143D01*
X119189143Y-89140571D02*
X119189143Y-87640571D01*
X119546286Y-87640571D01*
X119760571Y-87712000D01*
X119903429Y-87854857D01*
X119974857Y-87997714D01*
X120046286Y-88283429D01*
X120046286Y-88497714D01*
X119974857Y-88783429D01*
X119903429Y-88926286D01*
X119760571Y-89069143D01*
X119546286Y-89140571D01*
X119189143Y-89140571D01*
X120689143Y-89140571D02*
X120689143Y-87640571D01*
X121260571Y-87640571D01*
X121403429Y-87712000D01*
X121474857Y-87783429D01*
X121546286Y-87926286D01*
X121546286Y-88140571D01*
X121474857Y-88283429D01*
X121403429Y-88354857D01*
X121260571Y-88426286D01*
X120689143Y-88426286D01*
X122903429Y-89140571D02*
X122189143Y-89140571D01*
X122189143Y-87640571D01*
X124046286Y-89140571D02*
X124046286Y-88354857D01*
X123974857Y-88212000D01*
X123832000Y-88140571D01*
X123546286Y-88140571D01*
X123403429Y-88212000D01*
X124046286Y-89069143D02*
X123903429Y-89140571D01*
X123546286Y-89140571D01*
X123403429Y-89069143D01*
X123332000Y-88926286D01*
X123332000Y-88783429D01*
X123403429Y-88640571D01*
X123546286Y-88569143D01*
X123903429Y-88569143D01*
X124046286Y-88497714D01*
X124760572Y-89140571D02*
X124760572Y-87640571D01*
X124760572Y-88212000D02*
X124903429Y-88140571D01*
X125189143Y-88140571D01*
X125332000Y-88212000D01*
X125403429Y-88283429D01*
X125474858Y-88426286D01*
X125474858Y-88854857D01*
X125403429Y-88997714D01*
X125332000Y-89069143D01*
X125189143Y-89140571D01*
X124903429Y-89140571D01*
X124760572Y-89069143D01*
X110832001Y-91112000D02*
X111546287Y-91112000D01*
X110689144Y-91540571D02*
X111189144Y-90040571D01*
X111689144Y-91540571D01*
X112832001Y-90540571D02*
X112832001Y-91540571D01*
X112189144Y-90540571D02*
X112189144Y-91326286D01*
X112260572Y-91469143D01*
X112403430Y-91540571D01*
X112617715Y-91540571D01*
X112760572Y-91469143D01*
X112832001Y-91397714D01*
X114189144Y-90540571D02*
X114189144Y-91754857D01*
X114117715Y-91897714D01*
X114046287Y-91969143D01*
X113903430Y-92040571D01*
X113689144Y-92040571D01*
X113546287Y-91969143D01*
X114189144Y-91469143D02*
X114046287Y-91540571D01*
X113760573Y-91540571D01*
X113617715Y-91469143D01*
X113546287Y-91397714D01*
X113474858Y-91254857D01*
X113474858Y-90826286D01*
X113546287Y-90683429D01*
X113617715Y-90612000D01*
X113760573Y-90540571D01*
X114046287Y-90540571D01*
X114189144Y-90612000D01*
X114903430Y-91397714D02*
X114974858Y-91469143D01*
X114903430Y-91540571D01*
X114832001Y-91469143D01*
X114903430Y-91397714D01*
X114903430Y-91540571D01*
X116689144Y-90183429D02*
X116760573Y-90112000D01*
X116903430Y-90040571D01*
X117260573Y-90040571D01*
X117403430Y-90112000D01*
X117474859Y-90183429D01*
X117546287Y-90326286D01*
X117546287Y-90469143D01*
X117474859Y-90683429D01*
X116617716Y-91540571D01*
X117546287Y-91540571D01*
X118474858Y-90040571D02*
X118617715Y-90040571D01*
X118760572Y-90112000D01*
X118832001Y-90183429D01*
X118903430Y-90326286D01*
X118974858Y-90612000D01*
X118974858Y-90969143D01*
X118903430Y-91254857D01*
X118832001Y-91397714D01*
X118760572Y-91469143D01*
X118617715Y-91540571D01*
X118474858Y-91540571D01*
X118332001Y-91469143D01*
X118260572Y-91397714D01*
X118189144Y-91254857D01*
X118117715Y-90969143D01*
X118117715Y-90612000D01*
X118189144Y-90326286D01*
X118260572Y-90183429D01*
X118332001Y-90112000D01*
X118474858Y-90040571D01*
X120403429Y-91540571D02*
X119546286Y-91540571D01*
X119974858Y-91540571D02*
X119974858Y-90040571D01*
X119832001Y-90254857D01*
X119689143Y-90397714D01*
X119546286Y-90469143D01*
X121760572Y-90040571D02*
X121046286Y-90040571D01*
X120974857Y-90754857D01*
X121046286Y-90683429D01*
X121189143Y-90612000D01*
X121546286Y-90612000D01*
X121689143Y-90683429D01*
X121760572Y-90754857D01*
X121832000Y-90897714D01*
X121832000Y-91254857D01*
X121760572Y-91397714D01*
X121689143Y-91469143D01*
X121546286Y-91540571D01*
X121189143Y-91540571D01*
X121046286Y-91469143D01*
X120974857Y-91397714D01*
D10*
X137414000Y-78486000D02*
X136906000Y-78486000D01*
X137414000Y-123698000D02*
X137414000Y-78486000D01*
X136906000Y-123698000D02*
X137414000Y-123698000D01*
X76962000Y-78486000D02*
X76962000Y-81534000D01*
X136906000Y-78486000D02*
X76962000Y-78486000D01*
X133350000Y-123698000D02*
X136906000Y-123698000D01*
X76962000Y-81534000D02*
X76962000Y-112014000D01*
X76962000Y-123698000D02*
X133350000Y-123698000D01*
X76962000Y-112014000D02*
X76962000Y-123698000D01*
D13*
X95496000Y-97194000D02*
X94496000Y-97194000D01*
X94496000Y-98894000D02*
X95496000Y-98894000D01*
X92036000Y-99814000D02*
X92036000Y-98814000D01*
X90336000Y-98814000D02*
X90336000Y-99814000D01*
X99148000Y-85590000D02*
X99148000Y-84590000D01*
X97448000Y-84590000D02*
X97448000Y-85590000D01*
X111498000Y-99988000D02*
X110498000Y-99988000D01*
X110498000Y-101688000D02*
X111498000Y-101688000D01*
X89416000Y-103720000D02*
X90416000Y-103720000D01*
X90416000Y-102020000D02*
X89416000Y-102020000D01*
X93786960Y-104211120D02*
X88585040Y-104211120D01*
X88585040Y-106608880D02*
X93786960Y-106608880D01*
X95785940Y-107708700D02*
X95785940Y-106608880D01*
X96385380Y-107208320D02*
X95186500Y-107208320D01*
X95181420Y-106608880D02*
X95181420Y-104211120D01*
X91448000Y-114642000D02*
X92448000Y-114642000D01*
X92448000Y-112942000D02*
X91448000Y-112942000D01*
X93786960Y-110053120D02*
X88585040Y-110053120D01*
X88585040Y-112450880D02*
X93786960Y-112450880D01*
X95785940Y-113550700D02*
X95785940Y-112450880D01*
X96385380Y-113050320D02*
X95186500Y-113050320D01*
X95181420Y-112450880D02*
X95181420Y-110053120D01*
X98146500Y-99957000D02*
X98146500Y-100957000D01*
X99846500Y-100957000D02*
X99846500Y-99957000D01*
X91448000Y-116928000D02*
X92448000Y-116928000D01*
X92448000Y-115228000D02*
X91448000Y-115228000D01*
X116832000Y-109894000D02*
X115832000Y-109894000D01*
X115832000Y-111594000D02*
X116832000Y-111594000D01*
X105117000Y-119626000D02*
X105117000Y-118626000D01*
X103417000Y-118626000D02*
X103417000Y-119626000D01*
X109054000Y-119626000D02*
X109054000Y-118626000D01*
X107354000Y-118626000D02*
X107354000Y-119626000D01*
X116832000Y-107100000D02*
X115832000Y-107100000D01*
X115832000Y-108800000D02*
X116832000Y-108800000D01*
X85404960Y-91765120D02*
X80203040Y-91765120D01*
X80203040Y-94162880D02*
X85404960Y-94162880D01*
X87403940Y-95262700D02*
X87403940Y-94162880D01*
X88003380Y-94762320D02*
X86804500Y-94762320D01*
X86799420Y-94162880D02*
X86799420Y-91765120D01*
X111498000Y-97829000D02*
X110498000Y-97829000D01*
X110498000Y-99529000D02*
X111498000Y-99529000D01*
X85404960Y-87193120D02*
X80203040Y-87193120D01*
X80203040Y-89590880D02*
X85404960Y-89590880D01*
X87403940Y-90690700D02*
X87403940Y-89590880D01*
X88003380Y-90190320D02*
X86804500Y-90190320D01*
X86799420Y-89590880D02*
X86799420Y-87193120D01*
X83375500Y-96774000D02*
X83756500Y-96774000D01*
X82359500Y-96774000D02*
X82740500Y-96774000D01*
X82740500Y-96774000D02*
X83375500Y-96393000D01*
X83375500Y-96393000D02*
X83375500Y-97155000D01*
X83375500Y-97155000D02*
X82740500Y-96774000D01*
X82740500Y-96266000D02*
X82740500Y-97282000D01*
X81058000Y-97674000D02*
X84598000Y-97674000D01*
X81058000Y-95874000D02*
X84598000Y-95874000D01*
X83375500Y-99060000D02*
X83756500Y-99060000D01*
X82359500Y-99060000D02*
X82740500Y-99060000D01*
X82740500Y-99060000D02*
X83375500Y-98679000D01*
X83375500Y-98679000D02*
X83375500Y-99441000D01*
X83375500Y-99441000D02*
X82740500Y-99060000D01*
X82740500Y-98552000D02*
X82740500Y-99568000D01*
X81058000Y-99960000D02*
X84598000Y-99960000D01*
X81058000Y-98160000D02*
X84598000Y-98160000D01*
X119900500Y-95770000D02*
X117200500Y-95770000D01*
X119900500Y-97270000D02*
X117200500Y-97270000D01*
X118400500Y-96370000D02*
X118400500Y-96620000D01*
X118400500Y-96620000D02*
X118550500Y-96470000D01*
X118650500Y-96870000D02*
X118650500Y-96170000D01*
X118300500Y-96520000D02*
X117950500Y-96520000D01*
X118650500Y-96520000D02*
X118300500Y-96870000D01*
X118300500Y-96870000D02*
X118300500Y-96170000D01*
X118300500Y-96170000D02*
X118650500Y-96520000D01*
X119900500Y-93738000D02*
X117200500Y-93738000D01*
X119900500Y-95238000D02*
X117200500Y-95238000D01*
X118400500Y-94338000D02*
X118400500Y-94588000D01*
X118400500Y-94588000D02*
X118550500Y-94438000D01*
X118650500Y-94838000D02*
X118650500Y-94138000D01*
X118300500Y-94488000D02*
X117950500Y-94488000D01*
X118650500Y-94488000D02*
X118300500Y-94838000D01*
X118300500Y-94838000D02*
X118300500Y-94138000D01*
X118300500Y-94138000D02*
X118650500Y-94488000D01*
X83050000Y-116244000D02*
X82050000Y-116244000D01*
X82050000Y-117944000D02*
X83050000Y-117944000D01*
X84336000Y-105244000D02*
X85336000Y-105244000D01*
X85336000Y-103544000D02*
X84336000Y-103544000D01*
X84336000Y-102894500D02*
X85336000Y-102894500D01*
X85336000Y-101194500D02*
X84336000Y-101194500D01*
X88480000Y-116324000D02*
X88480000Y-115324000D01*
X86780000Y-115324000D02*
X86780000Y-116324000D01*
D14*
X81678780Y-110812580D02*
X81678780Y-110312200D01*
X81678780Y-106611420D02*
X81678780Y-107111800D01*
X79679800Y-104912160D02*
X80479900Y-104912160D01*
X79679800Y-112511840D02*
X80479900Y-112511840D01*
X77180440Y-104912160D02*
X77180440Y-112511840D01*
X77180440Y-112511840D02*
X77579220Y-112511840D01*
X77180440Y-104912160D02*
X77579220Y-104912160D01*
D13*
X129794000Y-123190000D02*
X112014000Y-123190000D01*
X112014000Y-123190000D02*
X112014000Y-120650000D01*
X112014000Y-120650000D02*
X129794000Y-120650000D01*
X132614000Y-123470000D02*
X131064000Y-123470000D01*
X129794000Y-123190000D02*
X129794000Y-120650000D01*
X131064000Y-120370000D02*
X132614000Y-120370000D01*
X132614000Y-120370000D02*
X132614000Y-123470000D01*
X132651500Y-116649500D02*
X132651500Y-109029500D01*
X130111500Y-116649500D02*
X130111500Y-109029500D01*
X129831500Y-119469500D02*
X129831500Y-117919500D01*
X132651500Y-109029500D02*
X130111500Y-109029500D01*
X130111500Y-116649500D02*
X132651500Y-116649500D01*
X132931500Y-117919500D02*
X132931500Y-119469500D01*
X132931500Y-119469500D02*
X129831500Y-119469500D01*
X132651500Y-107632500D02*
X132651500Y-82232500D01*
X127571500Y-84772500D02*
X127571500Y-107632500D01*
X132651500Y-107632500D02*
X127571500Y-107632500D01*
X132651500Y-82232500D02*
X130111500Y-82232500D01*
X128841500Y-81952500D02*
X127291500Y-81952500D01*
X130111500Y-82232500D02*
X130111500Y-84772500D01*
X130111500Y-84772500D02*
X127571500Y-84772500D01*
X127291500Y-81952500D02*
X127291500Y-83502500D01*
D15*
X117856000Y-119456200D02*
X117856000Y-112699800D01*
X117856000Y-112699800D02*
X114808000Y-112699800D01*
X114808000Y-112699800D02*
X114808000Y-119456200D01*
X114808000Y-119456200D02*
X117856000Y-119456200D01*
D13*
X89662000Y-82296000D02*
X84582000Y-82296000D01*
X84582000Y-82296000D02*
X84582000Y-84836000D01*
X84582000Y-84836000D02*
X89662000Y-84836000D01*
X92482000Y-85116000D02*
X90932000Y-85116000D01*
X89662000Y-84836000D02*
X89662000Y-82296000D01*
X90932000Y-82016000D02*
X92482000Y-82016000D01*
X92482000Y-82016000D02*
X92482000Y-85116000D01*
X106793000Y-93888000D02*
X106793000Y-95088000D01*
X105043000Y-95088000D02*
X105043000Y-93888000D01*
X102221000Y-93888000D02*
X102221000Y-95088000D01*
X100471000Y-95088000D02*
X100471000Y-93888000D01*
X102757000Y-95088000D02*
X102757000Y-93888000D01*
X104507000Y-93888000D02*
X104507000Y-95088000D01*
X99935000Y-93888000D02*
X99935000Y-95088000D01*
X98185000Y-95088000D02*
X98185000Y-93888000D01*
X91786000Y-108825000D02*
X90586000Y-108825000D01*
X90586000Y-107075000D02*
X91786000Y-107075000D01*
X92548000Y-119239000D02*
X91348000Y-119239000D01*
X91348000Y-117489000D02*
X92548000Y-117489000D01*
X125060000Y-97077500D02*
X123860000Y-97077500D01*
X123860000Y-95327500D02*
X125060000Y-95327500D01*
X125060000Y-104697500D02*
X123860000Y-104697500D01*
X123860000Y-102947500D02*
X125060000Y-102947500D01*
X125060000Y-107237500D02*
X123860000Y-107237500D01*
X123860000Y-105487500D02*
X125060000Y-105487500D01*
X111598000Y-97395000D02*
X110398000Y-97395000D01*
X110398000Y-95645000D02*
X111598000Y-95645000D01*
X111598000Y-95363000D02*
X110398000Y-95363000D01*
X110398000Y-93613000D02*
X111598000Y-93613000D01*
D16*
X100467160Y-89458800D02*
X100957380Y-89458800D01*
X100957380Y-89458800D02*
X100957380Y-88358980D01*
X100467160Y-88358980D02*
X100957380Y-88358980D01*
X100467160Y-89458800D02*
X100467160Y-88358980D01*
X101737160Y-89458800D02*
X102227380Y-89458800D01*
X102227380Y-89458800D02*
X102227380Y-88358980D01*
X101737160Y-88358980D02*
X102227380Y-88358980D01*
X101737160Y-89458800D02*
X101737160Y-88358980D01*
X103004620Y-89458800D02*
X103494840Y-89458800D01*
X103494840Y-89458800D02*
X103494840Y-88358980D01*
X103004620Y-88358980D02*
X103494840Y-88358980D01*
X103004620Y-89458800D02*
X103004620Y-88358980D01*
X104274620Y-89458800D02*
X104764840Y-89458800D01*
X104764840Y-89458800D02*
X104764840Y-88358980D01*
X104274620Y-88358980D02*
X104764840Y-88358980D01*
X104274620Y-89458800D02*
X104274620Y-88358980D01*
X104274620Y-84361020D02*
X104764840Y-84361020D01*
X104764840Y-84361020D02*
X104764840Y-83261200D01*
X104274620Y-83261200D02*
X104764840Y-83261200D01*
X104274620Y-84361020D02*
X104274620Y-83261200D01*
X103004620Y-84361020D02*
X103494840Y-84361020D01*
X103494840Y-84361020D02*
X103494840Y-83261200D01*
X103004620Y-83261200D02*
X103494840Y-83261200D01*
X103004620Y-84361020D02*
X103004620Y-83261200D01*
X101737160Y-84361020D02*
X102227380Y-84361020D01*
X102227380Y-84361020D02*
X102227380Y-83261200D01*
X101737160Y-83261200D02*
X102227380Y-83261200D01*
X101737160Y-84361020D02*
X101737160Y-83261200D01*
X100467160Y-84361020D02*
X100957380Y-84361020D01*
X100957380Y-84361020D02*
X100957380Y-83261200D01*
X100467160Y-83261200D02*
X100957380Y-83261200D01*
X100467160Y-84361020D02*
X100467160Y-83261200D01*
D15*
X105013760Y-84460080D02*
X105013760Y-87759540D01*
X105013760Y-87759540D02*
X105013760Y-88259920D01*
X105013760Y-88259920D02*
X100218240Y-88259920D01*
X100218240Y-88259920D02*
X100218240Y-87759540D01*
X100218240Y-87759540D02*
X100218240Y-84460080D01*
X100218240Y-84460080D02*
X105013760Y-84460080D01*
X105013760Y-87759540D02*
X100218240Y-87759540D01*
D17*
X83736180Y-108694220D02*
X83835240Y-108694220D01*
X83835240Y-108694220D02*
X83835240Y-109095540D01*
X83835240Y-109095540D02*
X83736180Y-109095540D01*
X83736180Y-108793280D02*
X83334860Y-108793280D01*
X83334860Y-108894880D02*
X83736180Y-108894880D01*
X83736180Y-108993940D02*
X83334860Y-108993940D01*
X83334860Y-108694220D02*
X83736180Y-108694220D01*
X83736180Y-108694220D02*
X83736180Y-109095540D01*
X83736180Y-109095540D02*
X83535520Y-109095540D01*
X86136480Y-107693460D02*
X86337140Y-107693460D01*
X86337140Y-107693460D02*
X86337140Y-109095540D01*
X86337140Y-109095540D02*
X86136480Y-109095540D01*
X84635340Y-109095540D02*
X85435440Y-109095540D01*
X84236560Y-107693460D02*
X85435440Y-107693460D01*
X83334860Y-107693460D02*
X83535520Y-107693460D01*
X83334860Y-107693460D02*
X83334860Y-109095540D01*
X83334860Y-109095540D02*
X83535520Y-109095540D01*
D18*
X100655120Y-102966520D02*
X99156520Y-104465120D01*
X100655120Y-114462560D02*
X99156520Y-114462560D01*
X99156520Y-114462560D02*
X99156520Y-112963960D01*
X109153960Y-114462560D02*
X110652560Y-114462560D01*
X110652560Y-114462560D02*
X110652560Y-112963960D01*
X109153960Y-102966520D02*
X110652560Y-102966520D01*
X110652560Y-102966520D02*
X110652560Y-104465120D01*
X100406200Y-104965500D02*
X102405180Y-104965500D01*
D19*
X98844100Y-103339900D02*
G75*
G03X98844100Y-103339900I-187960J0D01*
G01*
D15*
X88501220Y-86768940D02*
X88501220Y-87119460D01*
X94503240Y-86768940D02*
X88501220Y-86768940D01*
X88501220Y-89369900D02*
X88501220Y-88668860D01*
X88501220Y-91671140D02*
X88501220Y-90970100D01*
X88501220Y-93571060D02*
X88501220Y-93268800D01*
X94503240Y-93571060D02*
X88501220Y-93571060D01*
X94503240Y-86768940D02*
X95902780Y-88171020D01*
X94503240Y-93571060D02*
X95902780Y-92168980D01*
D13*
X92726000Y-104116000D02*
G75*
G03X92726000Y-104116000I-500000J0D01*
G01*
X92726000Y-99616000D02*
X92726000Y-103616000D01*
X92726000Y-103616000D02*
X97226000Y-103616000D01*
X97226000Y-103616000D02*
X97226000Y-99616000D01*
X97226000Y-99616000D02*
X92726000Y-99616000D01*
X81534000Y-121412000D02*
G75*
G03X81534000Y-121412000I-2286000J0D01*
G01*
X137414000Y-80772000D02*
G75*
G03X137414000Y-80772000I-2286000J0D01*
G01*
X81534000Y-80772000D02*
G75*
G03X81534000Y-80772000I-2286000J0D01*
G01*
X137414000Y-121412000D02*
G75*
G03X137414000Y-121412000I-2286000J0D01*
G01*
X94829334Y-96877143D02*
X94781715Y-96924762D01*
X94638858Y-96972381D01*
X94543620Y-96972381D01*
X94400762Y-96924762D01*
X94305524Y-96829524D01*
X94257905Y-96734286D01*
X94210286Y-96543810D01*
X94210286Y-96400952D01*
X94257905Y-96210476D01*
X94305524Y-96115238D01*
X94400762Y-96020000D01*
X94543620Y-95972381D01*
X94638858Y-95972381D01*
X94781715Y-96020000D01*
X94829334Y-96067619D01*
X95781715Y-96972381D02*
X95210286Y-96972381D01*
X95496000Y-96972381D02*
X95496000Y-95972381D01*
X95400762Y-96115238D01*
X95305524Y-96210476D01*
X95210286Y-96258095D01*
X91019334Y-96877143D02*
X90971715Y-96924762D01*
X90828858Y-96972381D01*
X90733620Y-96972381D01*
X90590762Y-96924762D01*
X90495524Y-96829524D01*
X90447905Y-96734286D01*
X90400286Y-96543810D01*
X90400286Y-96400952D01*
X90447905Y-96210476D01*
X90495524Y-96115238D01*
X90590762Y-96020000D01*
X90733620Y-95972381D01*
X90828858Y-95972381D01*
X90971715Y-96020000D01*
X91019334Y-96067619D01*
X91400286Y-96067619D02*
X91447905Y-96020000D01*
X91543143Y-95972381D01*
X91781239Y-95972381D01*
X91876477Y-96020000D01*
X91924096Y-96067619D01*
X91971715Y-96162857D01*
X91971715Y-96258095D01*
X91924096Y-96400952D01*
X91352667Y-96972381D01*
X91971715Y-96972381D01*
X96099334Y-86717143D02*
X96051715Y-86764762D01*
X95908858Y-86812381D01*
X95813620Y-86812381D01*
X95670762Y-86764762D01*
X95575524Y-86669524D01*
X95527905Y-86574286D01*
X95480286Y-86383810D01*
X95480286Y-86240952D01*
X95527905Y-86050476D01*
X95575524Y-85955238D01*
X95670762Y-85860000D01*
X95813620Y-85812381D01*
X95908858Y-85812381D01*
X96051715Y-85860000D01*
X96099334Y-85907619D01*
X96432667Y-85812381D02*
X97051715Y-85812381D01*
X96718381Y-86193333D01*
X96861239Y-86193333D01*
X96956477Y-86240952D01*
X97004096Y-86288571D01*
X97051715Y-86383810D01*
X97051715Y-86621905D01*
X97004096Y-86717143D01*
X96956477Y-86764762D01*
X96861239Y-86812381D01*
X96575524Y-86812381D01*
X96480286Y-86764762D01*
X96432667Y-86717143D01*
X114133334Y-101195143D02*
X114085715Y-101242762D01*
X113942858Y-101290381D01*
X113847620Y-101290381D01*
X113704762Y-101242762D01*
X113609524Y-101147524D01*
X113561905Y-101052286D01*
X113514286Y-100861810D01*
X113514286Y-100718952D01*
X113561905Y-100528476D01*
X113609524Y-100433238D01*
X113704762Y-100338000D01*
X113847620Y-100290381D01*
X113942858Y-100290381D01*
X114085715Y-100338000D01*
X114133334Y-100385619D01*
X114990477Y-100623714D02*
X114990477Y-101290381D01*
X114752381Y-100242762D02*
X114514286Y-100957048D01*
X115133334Y-100957048D01*
X87971334Y-101703143D02*
X87923715Y-101750762D01*
X87780858Y-101798381D01*
X87685620Y-101798381D01*
X87542762Y-101750762D01*
X87447524Y-101655524D01*
X87399905Y-101560286D01*
X87352286Y-101369810D01*
X87352286Y-101226952D01*
X87399905Y-101036476D01*
X87447524Y-100941238D01*
X87542762Y-100846000D01*
X87685620Y-100798381D01*
X87780858Y-100798381D01*
X87923715Y-100846000D01*
X87971334Y-100893619D01*
X88876096Y-100798381D02*
X88399905Y-100798381D01*
X88352286Y-101274571D01*
X88399905Y-101226952D01*
X88495143Y-101179333D01*
X88733239Y-101179333D01*
X88828477Y-101226952D01*
X88876096Y-101274571D01*
X88923715Y-101369810D01*
X88923715Y-101607905D01*
X88876096Y-101703143D01*
X88828477Y-101750762D01*
X88733239Y-101798381D01*
X88495143Y-101798381D01*
X88399905Y-101750762D01*
X88352286Y-101703143D01*
X96035834Y-106338643D02*
X95988215Y-106386262D01*
X95845358Y-106433881D01*
X95750120Y-106433881D01*
X95607262Y-106386262D01*
X95512024Y-106291024D01*
X95464405Y-106195786D01*
X95416786Y-106005310D01*
X95416786Y-105862452D01*
X95464405Y-105671976D01*
X95512024Y-105576738D01*
X95607262Y-105481500D01*
X95750120Y-105433881D01*
X95845358Y-105433881D01*
X95988215Y-105481500D01*
X96035834Y-105529119D01*
X96892977Y-105433881D02*
X96702500Y-105433881D01*
X96607262Y-105481500D01*
X96559643Y-105529119D01*
X96464405Y-105671976D01*
X96416786Y-105862452D01*
X96416786Y-106243405D01*
X96464405Y-106338643D01*
X96512024Y-106386262D01*
X96607262Y-106433881D01*
X96797739Y-106433881D01*
X96892977Y-106386262D01*
X96940596Y-106338643D01*
X96988215Y-106243405D01*
X96988215Y-106005310D01*
X96940596Y-105910071D01*
X96892977Y-105862452D01*
X96797739Y-105814833D01*
X96607262Y-105814833D01*
X96512024Y-105862452D01*
X96464405Y-105910071D01*
X96416786Y-106005310D01*
X95404988Y-107282289D02*
X96166893Y-107282289D01*
X95785941Y-107663241D02*
X95785941Y-106901336D01*
X95083334Y-114403143D02*
X95035715Y-114450762D01*
X94892858Y-114498381D01*
X94797620Y-114498381D01*
X94654762Y-114450762D01*
X94559524Y-114355524D01*
X94511905Y-114260286D01*
X94464286Y-114069810D01*
X94464286Y-113926952D01*
X94511905Y-113736476D01*
X94559524Y-113641238D01*
X94654762Y-113546000D01*
X94797620Y-113498381D01*
X94892858Y-113498381D01*
X95035715Y-113546000D01*
X95083334Y-113593619D01*
X95416667Y-113498381D02*
X96083334Y-113498381D01*
X95654762Y-114498381D01*
X96099334Y-111609143D02*
X96051715Y-111656762D01*
X95908858Y-111704381D01*
X95813620Y-111704381D01*
X95670762Y-111656762D01*
X95575524Y-111561524D01*
X95527905Y-111466286D01*
X95480286Y-111275810D01*
X95480286Y-111132952D01*
X95527905Y-110942476D01*
X95575524Y-110847238D01*
X95670762Y-110752000D01*
X95813620Y-110704381D01*
X95908858Y-110704381D01*
X96051715Y-110752000D01*
X96099334Y-110799619D01*
X96670762Y-111132952D02*
X96575524Y-111085333D01*
X96527905Y-111037714D01*
X96480286Y-110942476D01*
X96480286Y-110894857D01*
X96527905Y-110799619D01*
X96575524Y-110752000D01*
X96670762Y-110704381D01*
X96861239Y-110704381D01*
X96956477Y-110752000D01*
X97004096Y-110799619D01*
X97051715Y-110894857D01*
X97051715Y-110942476D01*
X97004096Y-111037714D01*
X96956477Y-111085333D01*
X96861239Y-111132952D01*
X96670762Y-111132952D01*
X96575524Y-111180571D01*
X96527905Y-111228190D01*
X96480286Y-111323429D01*
X96480286Y-111513905D01*
X96527905Y-111609143D01*
X96575524Y-111656762D01*
X96670762Y-111704381D01*
X96861239Y-111704381D01*
X96956477Y-111656762D01*
X97004096Y-111609143D01*
X97051715Y-111513905D01*
X97051715Y-111323429D01*
X97004096Y-111228190D01*
X96956477Y-111180571D01*
X96861239Y-111132952D01*
X95404988Y-113124289D02*
X96166893Y-113124289D01*
X95785941Y-113505241D02*
X95785941Y-112743336D01*
X100734834Y-99480643D02*
X100687215Y-99528262D01*
X100544358Y-99575881D01*
X100449120Y-99575881D01*
X100306262Y-99528262D01*
X100211024Y-99433024D01*
X100163405Y-99337786D01*
X100115786Y-99147310D01*
X100115786Y-99004452D01*
X100163405Y-98813976D01*
X100211024Y-98718738D01*
X100306262Y-98623500D01*
X100449120Y-98575881D01*
X100544358Y-98575881D01*
X100687215Y-98623500D01*
X100734834Y-98671119D01*
X101211024Y-99575881D02*
X101401500Y-99575881D01*
X101496739Y-99528262D01*
X101544358Y-99480643D01*
X101639596Y-99337786D01*
X101687215Y-99147310D01*
X101687215Y-98766357D01*
X101639596Y-98671119D01*
X101591977Y-98623500D01*
X101496739Y-98575881D01*
X101306262Y-98575881D01*
X101211024Y-98623500D01*
X101163405Y-98671119D01*
X101115786Y-98766357D01*
X101115786Y-99004452D01*
X101163405Y-99099690D01*
X101211024Y-99147310D01*
X101306262Y-99194929D01*
X101496739Y-99194929D01*
X101591977Y-99147310D01*
X101639596Y-99099690D01*
X101687215Y-99004452D01*
X95115143Y-116435143D02*
X95067524Y-116482762D01*
X94924667Y-116530381D01*
X94829429Y-116530381D01*
X94686571Y-116482762D01*
X94591333Y-116387524D01*
X94543714Y-116292286D01*
X94496095Y-116101810D01*
X94496095Y-115958952D01*
X94543714Y-115768476D01*
X94591333Y-115673238D01*
X94686571Y-115578000D01*
X94829429Y-115530381D01*
X94924667Y-115530381D01*
X95067524Y-115578000D01*
X95115143Y-115625619D01*
X96067524Y-116530381D02*
X95496095Y-116530381D01*
X95781809Y-116530381D02*
X95781809Y-115530381D01*
X95686571Y-115673238D01*
X95591333Y-115768476D01*
X95496095Y-115816095D01*
X96686571Y-115530381D02*
X96781810Y-115530381D01*
X96877048Y-115578000D01*
X96924667Y-115625619D01*
X96972286Y-115720857D01*
X97019905Y-115911333D01*
X97019905Y-116149429D01*
X96972286Y-116339905D01*
X96924667Y-116435143D01*
X96877048Y-116482762D01*
X96781810Y-116530381D01*
X96686571Y-116530381D01*
X96591333Y-116482762D01*
X96543714Y-116435143D01*
X96496095Y-116339905D01*
X96448476Y-116149429D01*
X96448476Y-115911333D01*
X96496095Y-115720857D01*
X96543714Y-115625619D01*
X96591333Y-115578000D01*
X96686571Y-115530381D01*
X119245143Y-111101143D02*
X119197524Y-111148762D01*
X119054667Y-111196381D01*
X118959429Y-111196381D01*
X118816571Y-111148762D01*
X118721333Y-111053524D01*
X118673714Y-110958286D01*
X118626095Y-110767810D01*
X118626095Y-110624952D01*
X118673714Y-110434476D01*
X118721333Y-110339238D01*
X118816571Y-110244000D01*
X118959429Y-110196381D01*
X119054667Y-110196381D01*
X119197524Y-110244000D01*
X119245143Y-110291619D01*
X120197524Y-111196381D02*
X119626095Y-111196381D01*
X119911809Y-111196381D02*
X119911809Y-110196381D01*
X119816571Y-110339238D01*
X119721333Y-110434476D01*
X119626095Y-110482095D01*
X121149905Y-111196381D02*
X120578476Y-111196381D01*
X120864190Y-111196381D02*
X120864190Y-110196381D01*
X120768952Y-110339238D01*
X120673714Y-110434476D01*
X120578476Y-110482095D01*
X106724143Y-119768857D02*
X106771762Y-119816476D01*
X106819381Y-119959333D01*
X106819381Y-120054571D01*
X106771762Y-120197429D01*
X106676524Y-120292667D01*
X106581286Y-120340286D01*
X106390810Y-120387905D01*
X106247952Y-120387905D01*
X106057476Y-120340286D01*
X105962238Y-120292667D01*
X105867000Y-120197429D01*
X105819381Y-120054571D01*
X105819381Y-119959333D01*
X105867000Y-119816476D01*
X105914619Y-119768857D01*
X106819381Y-118816476D02*
X106819381Y-119387905D01*
X106819381Y-119102191D02*
X105819381Y-119102191D01*
X105962238Y-119197429D01*
X106057476Y-119292667D01*
X106105095Y-119387905D01*
X105914619Y-118435524D02*
X105867000Y-118387905D01*
X105819381Y-118292667D01*
X105819381Y-118054571D01*
X105867000Y-117959333D01*
X105914619Y-117911714D01*
X106009857Y-117864095D01*
X106105095Y-117864095D01*
X106247952Y-117911714D01*
X106819381Y-118483143D01*
X106819381Y-117864095D01*
X110661143Y-119768857D02*
X110708762Y-119816476D01*
X110756381Y-119959333D01*
X110756381Y-120054571D01*
X110708762Y-120197429D01*
X110613524Y-120292667D01*
X110518286Y-120340286D01*
X110327810Y-120387905D01*
X110184952Y-120387905D01*
X109994476Y-120340286D01*
X109899238Y-120292667D01*
X109804000Y-120197429D01*
X109756381Y-120054571D01*
X109756381Y-119959333D01*
X109804000Y-119816476D01*
X109851619Y-119768857D01*
X110756381Y-118816476D02*
X110756381Y-119387905D01*
X110756381Y-119102191D02*
X109756381Y-119102191D01*
X109899238Y-119197429D01*
X109994476Y-119292667D01*
X110042095Y-119387905D01*
X109756381Y-118483143D02*
X109756381Y-117864095D01*
X110137333Y-118197429D01*
X110137333Y-118054571D01*
X110184952Y-117959333D01*
X110232571Y-117911714D01*
X110327810Y-117864095D01*
X110565905Y-117864095D01*
X110661143Y-117911714D01*
X110708762Y-117959333D01*
X110756381Y-118054571D01*
X110756381Y-118340286D01*
X110708762Y-118435524D01*
X110661143Y-118483143D01*
X115689143Y-106207143D02*
X115641524Y-106254762D01*
X115498667Y-106302381D01*
X115403429Y-106302381D01*
X115260571Y-106254762D01*
X115165333Y-106159524D01*
X115117714Y-106064286D01*
X115070095Y-105873810D01*
X115070095Y-105730952D01*
X115117714Y-105540476D01*
X115165333Y-105445238D01*
X115260571Y-105350000D01*
X115403429Y-105302381D01*
X115498667Y-105302381D01*
X115641524Y-105350000D01*
X115689143Y-105397619D01*
X116641524Y-106302381D02*
X116070095Y-106302381D01*
X116355809Y-106302381D02*
X116355809Y-105302381D01*
X116260571Y-105445238D01*
X116165333Y-105540476D01*
X116070095Y-105588095D01*
X117498667Y-105635714D02*
X117498667Y-106302381D01*
X117260571Y-105254762D02*
X117022476Y-105969048D01*
X117641524Y-105969048D01*
X82161143Y-91289143D02*
X82113524Y-91336762D01*
X81970667Y-91384381D01*
X81875429Y-91384381D01*
X81732571Y-91336762D01*
X81637333Y-91241524D01*
X81589714Y-91146286D01*
X81542095Y-90955810D01*
X81542095Y-90812952D01*
X81589714Y-90622476D01*
X81637333Y-90527238D01*
X81732571Y-90432000D01*
X81875429Y-90384381D01*
X81970667Y-90384381D01*
X82113524Y-90432000D01*
X82161143Y-90479619D01*
X83113524Y-91384381D02*
X82542095Y-91384381D01*
X82827809Y-91384381D02*
X82827809Y-90384381D01*
X82732571Y-90527238D01*
X82637333Y-90622476D01*
X82542095Y-90670095D01*
X84018286Y-90384381D02*
X83542095Y-90384381D01*
X83494476Y-90860571D01*
X83542095Y-90812952D01*
X83637333Y-90765333D01*
X83875429Y-90765333D01*
X83970667Y-90812952D01*
X84018286Y-90860571D01*
X84065905Y-90955810D01*
X84065905Y-91193905D01*
X84018286Y-91289143D01*
X83970667Y-91336762D01*
X83875429Y-91384381D01*
X83637333Y-91384381D01*
X83542095Y-91336762D01*
X83494476Y-91289143D01*
X87022988Y-94836289D02*
X87784893Y-94836289D01*
X87403941Y-95217241D02*
X87403941Y-94455336D01*
X114165143Y-99036143D02*
X114117524Y-99083762D01*
X113974667Y-99131381D01*
X113879429Y-99131381D01*
X113736571Y-99083762D01*
X113641333Y-98988524D01*
X113593714Y-98893286D01*
X113546095Y-98702810D01*
X113546095Y-98559952D01*
X113593714Y-98369476D01*
X113641333Y-98274238D01*
X113736571Y-98179000D01*
X113879429Y-98131381D01*
X113974667Y-98131381D01*
X114117524Y-98179000D01*
X114165143Y-98226619D01*
X115117524Y-99131381D02*
X114546095Y-99131381D01*
X114831809Y-99131381D02*
X114831809Y-98131381D01*
X114736571Y-98274238D01*
X114641333Y-98369476D01*
X114546095Y-98417095D01*
X115974667Y-98131381D02*
X115784190Y-98131381D01*
X115688952Y-98179000D01*
X115641333Y-98226619D01*
X115546095Y-98369476D01*
X115498476Y-98559952D01*
X115498476Y-98940905D01*
X115546095Y-99036143D01*
X115593714Y-99083762D01*
X115688952Y-99131381D01*
X115879429Y-99131381D01*
X115974667Y-99083762D01*
X116022286Y-99036143D01*
X116069905Y-98940905D01*
X116069905Y-98702810D01*
X116022286Y-98607571D01*
X115974667Y-98559952D01*
X115879429Y-98512333D01*
X115688952Y-98512333D01*
X115593714Y-98559952D01*
X115546095Y-98607571D01*
X115498476Y-98702810D01*
X82161143Y-86717143D02*
X82113524Y-86764762D01*
X81970667Y-86812381D01*
X81875429Y-86812381D01*
X81732571Y-86764762D01*
X81637333Y-86669524D01*
X81589714Y-86574286D01*
X81542095Y-86383810D01*
X81542095Y-86240952D01*
X81589714Y-86050476D01*
X81637333Y-85955238D01*
X81732571Y-85860000D01*
X81875429Y-85812381D01*
X81970667Y-85812381D01*
X82113524Y-85860000D01*
X82161143Y-85907619D01*
X83113524Y-86812381D02*
X82542095Y-86812381D01*
X82827809Y-86812381D02*
X82827809Y-85812381D01*
X82732571Y-85955238D01*
X82637333Y-86050476D01*
X82542095Y-86098095D01*
X83446857Y-85812381D02*
X84113524Y-85812381D01*
X83684952Y-86812381D01*
X87022988Y-90264289D02*
X87784893Y-90264289D01*
X87403941Y-90645241D02*
X87403941Y-89883336D01*
X79017905Y-97226381D02*
X79017905Y-96226381D01*
X79256000Y-96226381D01*
X79398858Y-96274000D01*
X79494096Y-96369238D01*
X79541715Y-96464476D01*
X79589334Y-96654952D01*
X79589334Y-96797810D01*
X79541715Y-96988286D01*
X79494096Y-97083524D01*
X79398858Y-97178762D01*
X79256000Y-97226381D01*
X79017905Y-97226381D01*
X80541715Y-97226381D02*
X79970286Y-97226381D01*
X80256000Y-97226381D02*
X80256000Y-96226381D01*
X80160762Y-96369238D01*
X80065524Y-96464476D01*
X79970286Y-96512095D01*
X79017905Y-99512381D02*
X79017905Y-98512381D01*
X79256000Y-98512381D01*
X79398858Y-98560000D01*
X79494096Y-98655238D01*
X79541715Y-98750476D01*
X79589334Y-98940952D01*
X79589334Y-99083810D01*
X79541715Y-99274286D01*
X79494096Y-99369524D01*
X79398858Y-99464762D01*
X79256000Y-99512381D01*
X79017905Y-99512381D01*
X79970286Y-98607619D02*
X80017905Y-98560000D01*
X80113143Y-98512381D01*
X80351239Y-98512381D01*
X80446477Y-98560000D01*
X80494096Y-98607619D01*
X80541715Y-98702857D01*
X80541715Y-98798095D01*
X80494096Y-98940952D01*
X79922667Y-99512381D01*
X80541715Y-99512381D01*
X120356405Y-96972381D02*
X120356405Y-95972381D01*
X120594500Y-95972381D01*
X120737358Y-96020000D01*
X120832596Y-96115238D01*
X120880215Y-96210476D01*
X120927834Y-96400952D01*
X120927834Y-96543810D01*
X120880215Y-96734286D01*
X120832596Y-96829524D01*
X120737358Y-96924762D01*
X120594500Y-96972381D01*
X120356405Y-96972381D01*
X121261167Y-95972381D02*
X121880215Y-95972381D01*
X121546881Y-96353333D01*
X121689739Y-96353333D01*
X121784977Y-96400952D01*
X121832596Y-96448571D01*
X121880215Y-96543810D01*
X121880215Y-96781905D01*
X121832596Y-96877143D01*
X121784977Y-96924762D01*
X121689739Y-96972381D01*
X121404024Y-96972381D01*
X121308786Y-96924762D01*
X121261167Y-96877143D01*
X120356405Y-94940381D02*
X120356405Y-93940381D01*
X120594500Y-93940381D01*
X120737358Y-93988000D01*
X120832596Y-94083238D01*
X120880215Y-94178476D01*
X120927834Y-94368952D01*
X120927834Y-94511810D01*
X120880215Y-94702286D01*
X120832596Y-94797524D01*
X120737358Y-94892762D01*
X120594500Y-94940381D01*
X120356405Y-94940381D01*
X121784977Y-94273714D02*
X121784977Y-94940381D01*
X121546881Y-93892762D02*
X121308786Y-94607048D01*
X121927834Y-94607048D01*
X81716667Y-118800571D02*
X81383333Y-118800571D01*
X81383333Y-119324381D02*
X81383333Y-118324381D01*
X81859524Y-118324381D01*
X82573810Y-118800571D02*
X82716667Y-118848190D01*
X82764286Y-118895810D01*
X82811905Y-118991048D01*
X82811905Y-119133905D01*
X82764286Y-119229143D01*
X82716667Y-119276762D01*
X82621429Y-119324381D01*
X82240476Y-119324381D01*
X82240476Y-118324381D01*
X82573810Y-118324381D01*
X82669048Y-118372000D01*
X82716667Y-118419619D01*
X82764286Y-118514857D01*
X82764286Y-118610095D01*
X82716667Y-118705333D01*
X82669048Y-118752952D01*
X82573810Y-118800571D01*
X82240476Y-118800571D01*
X83764286Y-119324381D02*
X83192857Y-119324381D01*
X83478571Y-119324381D02*
X83478571Y-118324381D01*
X83383333Y-118467238D01*
X83288095Y-118562476D01*
X83192857Y-118610095D01*
X82986667Y-106100571D02*
X82653333Y-106100571D01*
X82653333Y-106624381D02*
X82653333Y-105624381D01*
X83129524Y-105624381D01*
X83843810Y-106100571D02*
X83986667Y-106148190D01*
X84034286Y-106195810D01*
X84081905Y-106291048D01*
X84081905Y-106433905D01*
X84034286Y-106529143D01*
X83986667Y-106576762D01*
X83891429Y-106624381D01*
X83510476Y-106624381D01*
X83510476Y-105624381D01*
X83843810Y-105624381D01*
X83939048Y-105672000D01*
X83986667Y-105719619D01*
X84034286Y-105814857D01*
X84034286Y-105910095D01*
X83986667Y-106005333D01*
X83939048Y-106052952D01*
X83843810Y-106100571D01*
X83510476Y-106100571D01*
X84462857Y-105719619D02*
X84510476Y-105672000D01*
X84605714Y-105624381D01*
X84843810Y-105624381D01*
X84939048Y-105672000D01*
X84986667Y-105719619D01*
X85034286Y-105814857D01*
X85034286Y-105910095D01*
X84986667Y-106052952D01*
X84415238Y-106624381D01*
X85034286Y-106624381D01*
X80192667Y-102036571D02*
X79859333Y-102036571D01*
X79859333Y-102560381D02*
X79859333Y-101560381D01*
X80335524Y-101560381D01*
X81049810Y-102036571D02*
X81192667Y-102084190D01*
X81240286Y-102131810D01*
X81287905Y-102227048D01*
X81287905Y-102369905D01*
X81240286Y-102465143D01*
X81192667Y-102512762D01*
X81097429Y-102560381D01*
X80716476Y-102560381D01*
X80716476Y-101560381D01*
X81049810Y-101560381D01*
X81145048Y-101608000D01*
X81192667Y-101655619D01*
X81240286Y-101750857D01*
X81240286Y-101846095D01*
X81192667Y-101941333D01*
X81145048Y-101988952D01*
X81049810Y-102036571D01*
X80716476Y-102036571D01*
X81621238Y-101560381D02*
X82240286Y-101560381D01*
X81906952Y-101941333D01*
X82049810Y-101941333D01*
X82145048Y-101988952D01*
X82192667Y-102036571D01*
X82240286Y-102131810D01*
X82240286Y-102369905D01*
X82192667Y-102465143D01*
X82145048Y-102512762D01*
X82049810Y-102560381D01*
X81764095Y-102560381D01*
X81668857Y-102512762D01*
X81621238Y-102465143D01*
X86034571Y-117673333D02*
X86034571Y-118006667D01*
X86558381Y-118006667D02*
X85558381Y-118006667D01*
X85558381Y-117530476D01*
X86034571Y-116816190D02*
X86082190Y-116673333D01*
X86129810Y-116625714D01*
X86225048Y-116578095D01*
X86367905Y-116578095D01*
X86463143Y-116625714D01*
X86510762Y-116673333D01*
X86558381Y-116768571D01*
X86558381Y-117149524D01*
X85558381Y-117149524D01*
X85558381Y-116816190D01*
X85606000Y-116720952D01*
X85653619Y-116673333D01*
X85748857Y-116625714D01*
X85844095Y-116625714D01*
X85939333Y-116673333D01*
X85986952Y-116720952D01*
X86034571Y-116816190D01*
X86034571Y-117149524D01*
X85891714Y-115720952D02*
X86558381Y-115720952D01*
X85510762Y-115959048D02*
X86225048Y-116197143D01*
X86225048Y-115578095D01*
X82724667Y-112482381D02*
X82724667Y-113196667D01*
X82677047Y-113339524D01*
X82581809Y-113434762D01*
X82438952Y-113482381D01*
X82343714Y-113482381D01*
X83724667Y-113482381D02*
X83153238Y-113482381D01*
X83438952Y-113482381D02*
X83438952Y-112482381D01*
X83343714Y-112625238D01*
X83248476Y-112720476D01*
X83153238Y-112768095D01*
X127785905Y-120340381D02*
X127785905Y-119340381D01*
X128166858Y-119340381D01*
X128262096Y-119388000D01*
X128309715Y-119435619D01*
X128357334Y-119530857D01*
X128357334Y-119673714D01*
X128309715Y-119768952D01*
X128262096Y-119816571D01*
X128166858Y-119864190D01*
X127785905Y-119864190D01*
X129309715Y-120340381D02*
X128738286Y-120340381D01*
X129024000Y-120340381D02*
X129024000Y-119340381D01*
X128928762Y-119483238D01*
X128833524Y-119578476D01*
X128738286Y-119626095D01*
X128293905Y-110751881D02*
X128293905Y-109751881D01*
X128674858Y-109751881D01*
X128770096Y-109799500D01*
X128817715Y-109847119D01*
X128865334Y-109942357D01*
X128865334Y-110085214D01*
X128817715Y-110180452D01*
X128770096Y-110228071D01*
X128674858Y-110275690D01*
X128293905Y-110275690D01*
X129246286Y-109847119D02*
X129293905Y-109799500D01*
X129389143Y-109751881D01*
X129627239Y-109751881D01*
X129722477Y-109799500D01*
X129770096Y-109847119D01*
X129817715Y-109942357D01*
X129817715Y-110037595D01*
X129770096Y-110180452D01*
X129198667Y-110751881D01*
X129817715Y-110751881D01*
X125372905Y-83954881D02*
X125372905Y-82954881D01*
X125753858Y-82954881D01*
X125849096Y-83002500D01*
X125896715Y-83050119D01*
X125944334Y-83145357D01*
X125944334Y-83288214D01*
X125896715Y-83383452D01*
X125849096Y-83431071D01*
X125753858Y-83478690D01*
X125372905Y-83478690D01*
X126277667Y-82954881D02*
X126896715Y-82954881D01*
X126563381Y-83335833D01*
X126706239Y-83335833D01*
X126801477Y-83383452D01*
X126849096Y-83431071D01*
X126896715Y-83526310D01*
X126896715Y-83764405D01*
X126849096Y-83859643D01*
X126801477Y-83907262D01*
X126706239Y-83954881D01*
X126420524Y-83954881D01*
X126325286Y-83907262D01*
X126277667Y-83859643D01*
X113053905Y-112974381D02*
X113053905Y-111974381D01*
X113434858Y-111974381D01*
X113530096Y-112022000D01*
X113577715Y-112069619D01*
X113625334Y-112164857D01*
X113625334Y-112307714D01*
X113577715Y-112402952D01*
X113530096Y-112450571D01*
X113434858Y-112498190D01*
X113053905Y-112498190D01*
X114482477Y-112307714D02*
X114482477Y-112974381D01*
X114244381Y-111926762D02*
X114006286Y-112641048D01*
X114625334Y-112641048D01*
X92860905Y-83319881D02*
X92860905Y-82319881D01*
X93241858Y-82319881D01*
X93337096Y-82367500D01*
X93384715Y-82415119D01*
X93432334Y-82510357D01*
X93432334Y-82653214D01*
X93384715Y-82748452D01*
X93337096Y-82796071D01*
X93241858Y-82843690D01*
X92860905Y-82843690D01*
X94337096Y-82319881D02*
X93860905Y-82319881D01*
X93813286Y-82796071D01*
X93860905Y-82748452D01*
X93956143Y-82700833D01*
X94194239Y-82700833D01*
X94289477Y-82748452D01*
X94337096Y-82796071D01*
X94384715Y-82891310D01*
X94384715Y-83129405D01*
X94337096Y-83224643D01*
X94289477Y-83272262D01*
X94194239Y-83319881D01*
X93956143Y-83319881D01*
X93860905Y-83272262D01*
X93813286Y-83224643D01*
X107529334Y-96464381D02*
X107196000Y-95988190D01*
X106957905Y-96464381D02*
X106957905Y-95464381D01*
X107338858Y-95464381D01*
X107434096Y-95512000D01*
X107481715Y-95559619D01*
X107529334Y-95654857D01*
X107529334Y-95797714D01*
X107481715Y-95892952D01*
X107434096Y-95940571D01*
X107338858Y-95988190D01*
X106957905Y-95988190D01*
X108481715Y-96464381D02*
X107910286Y-96464381D01*
X108196000Y-96464381D02*
X108196000Y-95464381D01*
X108100762Y-95607238D01*
X108005524Y-95702476D01*
X107910286Y-95750095D01*
X101179334Y-97988381D02*
X100846000Y-97512190D01*
X100607905Y-97988381D02*
X100607905Y-96988381D01*
X100988858Y-96988381D01*
X101084096Y-97036000D01*
X101131715Y-97083619D01*
X101179334Y-97178857D01*
X101179334Y-97321714D01*
X101131715Y-97416952D01*
X101084096Y-97464571D01*
X100988858Y-97512190D01*
X100607905Y-97512190D01*
X101560286Y-97083619D02*
X101607905Y-97036000D01*
X101703143Y-96988381D01*
X101941239Y-96988381D01*
X102036477Y-97036000D01*
X102084096Y-97083619D01*
X102131715Y-97178857D01*
X102131715Y-97274095D01*
X102084096Y-97416952D01*
X101512667Y-97988381D01*
X102131715Y-97988381D01*
X103465334Y-97988381D02*
X103132000Y-97512190D01*
X102893905Y-97988381D02*
X102893905Y-96988381D01*
X103274858Y-96988381D01*
X103370096Y-97036000D01*
X103417715Y-97083619D01*
X103465334Y-97178857D01*
X103465334Y-97321714D01*
X103417715Y-97416952D01*
X103370096Y-97464571D01*
X103274858Y-97512190D01*
X102893905Y-97512190D01*
X103798667Y-96988381D02*
X104417715Y-96988381D01*
X104084381Y-97369333D01*
X104227239Y-97369333D01*
X104322477Y-97416952D01*
X104370096Y-97464571D01*
X104417715Y-97559810D01*
X104417715Y-97797905D01*
X104370096Y-97893143D01*
X104322477Y-97940762D01*
X104227239Y-97988381D01*
X103941524Y-97988381D01*
X103846286Y-97940762D01*
X103798667Y-97893143D01*
X98893334Y-97988381D02*
X98560000Y-97512190D01*
X98321905Y-97988381D02*
X98321905Y-96988381D01*
X98702858Y-96988381D01*
X98798096Y-97036000D01*
X98845715Y-97083619D01*
X98893334Y-97178857D01*
X98893334Y-97321714D01*
X98845715Y-97416952D01*
X98798096Y-97464571D01*
X98702858Y-97512190D01*
X98321905Y-97512190D01*
X99750477Y-97321714D02*
X99750477Y-97988381D01*
X99512381Y-96940762D02*
X99274286Y-97655048D01*
X99893334Y-97655048D01*
X87717334Y-108910381D02*
X87384000Y-108434190D01*
X87145905Y-108910381D02*
X87145905Y-107910381D01*
X87526858Y-107910381D01*
X87622096Y-107958000D01*
X87669715Y-108005619D01*
X87717334Y-108100857D01*
X87717334Y-108243714D01*
X87669715Y-108338952D01*
X87622096Y-108386571D01*
X87526858Y-108434190D01*
X87145905Y-108434190D01*
X88622096Y-107910381D02*
X88145905Y-107910381D01*
X88098286Y-108386571D01*
X88145905Y-108338952D01*
X88241143Y-108291333D01*
X88479239Y-108291333D01*
X88574477Y-108338952D01*
X88622096Y-108386571D01*
X88669715Y-108481810D01*
X88669715Y-108719905D01*
X88622096Y-108815143D01*
X88574477Y-108862762D01*
X88479239Y-108910381D01*
X88241143Y-108910381D01*
X88145905Y-108862762D01*
X88098286Y-108815143D01*
X95083334Y-118816381D02*
X94750000Y-118340190D01*
X94511905Y-118816381D02*
X94511905Y-117816381D01*
X94892858Y-117816381D01*
X94988096Y-117864000D01*
X95035715Y-117911619D01*
X95083334Y-118006857D01*
X95083334Y-118149714D01*
X95035715Y-118244952D01*
X94988096Y-118292571D01*
X94892858Y-118340190D01*
X94511905Y-118340190D01*
X95940477Y-117816381D02*
X95750000Y-117816381D01*
X95654762Y-117864000D01*
X95607143Y-117911619D01*
X95511905Y-118054476D01*
X95464286Y-118244952D01*
X95464286Y-118625905D01*
X95511905Y-118721143D01*
X95559524Y-118768762D01*
X95654762Y-118816381D01*
X95845239Y-118816381D01*
X95940477Y-118768762D01*
X95988096Y-118721143D01*
X96035715Y-118625905D01*
X96035715Y-118387810D01*
X95988096Y-118292571D01*
X95940477Y-118244952D01*
X95845239Y-118197333D01*
X95654762Y-118197333D01*
X95559524Y-118244952D01*
X95511905Y-118292571D01*
X95464286Y-118387810D01*
X124293334Y-94876881D02*
X123960000Y-94400690D01*
X123721905Y-94876881D02*
X123721905Y-93876881D01*
X124102858Y-93876881D01*
X124198096Y-93924500D01*
X124245715Y-93972119D01*
X124293334Y-94067357D01*
X124293334Y-94210214D01*
X124245715Y-94305452D01*
X124198096Y-94353071D01*
X124102858Y-94400690D01*
X123721905Y-94400690D01*
X124626667Y-93876881D02*
X125293334Y-93876881D01*
X124864762Y-94876881D01*
X124293334Y-102750881D02*
X123960000Y-102274690D01*
X123721905Y-102750881D02*
X123721905Y-101750881D01*
X124102858Y-101750881D01*
X124198096Y-101798500D01*
X124245715Y-101846119D01*
X124293334Y-101941357D01*
X124293334Y-102084214D01*
X124245715Y-102179452D01*
X124198096Y-102227071D01*
X124102858Y-102274690D01*
X123721905Y-102274690D01*
X124864762Y-102179452D02*
X124769524Y-102131833D01*
X124721905Y-102084214D01*
X124674286Y-101988976D01*
X124674286Y-101941357D01*
X124721905Y-101846119D01*
X124769524Y-101798500D01*
X124864762Y-101750881D01*
X125055239Y-101750881D01*
X125150477Y-101798500D01*
X125198096Y-101846119D01*
X125245715Y-101941357D01*
X125245715Y-101988976D01*
X125198096Y-102084214D01*
X125150477Y-102131833D01*
X125055239Y-102179452D01*
X124864762Y-102179452D01*
X124769524Y-102227071D01*
X124721905Y-102274690D01*
X124674286Y-102369929D01*
X124674286Y-102560405D01*
X124721905Y-102655643D01*
X124769524Y-102703262D01*
X124864762Y-102750881D01*
X125055239Y-102750881D01*
X125150477Y-102703262D01*
X125198096Y-102655643D01*
X125245715Y-102560405D01*
X125245715Y-102369929D01*
X125198096Y-102274690D01*
X125150477Y-102227071D01*
X125055239Y-102179452D01*
X124293334Y-108592881D02*
X123960000Y-108116690D01*
X123721905Y-108592881D02*
X123721905Y-107592881D01*
X124102858Y-107592881D01*
X124198096Y-107640500D01*
X124245715Y-107688119D01*
X124293334Y-107783357D01*
X124293334Y-107926214D01*
X124245715Y-108021452D01*
X124198096Y-108069071D01*
X124102858Y-108116690D01*
X123721905Y-108116690D01*
X124769524Y-108592881D02*
X124960000Y-108592881D01*
X125055239Y-108545262D01*
X125102858Y-108497643D01*
X125198096Y-108354786D01*
X125245715Y-108164310D01*
X125245715Y-107783357D01*
X125198096Y-107688119D01*
X125150477Y-107640500D01*
X125055239Y-107592881D01*
X124864762Y-107592881D01*
X124769524Y-107640500D01*
X124721905Y-107688119D01*
X124674286Y-107783357D01*
X124674286Y-108021452D01*
X124721905Y-108116690D01*
X124769524Y-108164310D01*
X124864762Y-108211929D01*
X125055239Y-108211929D01*
X125150477Y-108164310D01*
X125198096Y-108116690D01*
X125245715Y-108021452D01*
X114165143Y-96972381D02*
X113831809Y-96496190D01*
X113593714Y-96972381D02*
X113593714Y-95972381D01*
X113974667Y-95972381D01*
X114069905Y-96020000D01*
X114117524Y-96067619D01*
X114165143Y-96162857D01*
X114165143Y-96305714D01*
X114117524Y-96400952D01*
X114069905Y-96448571D01*
X113974667Y-96496190D01*
X113593714Y-96496190D01*
X115117524Y-96972381D02*
X114546095Y-96972381D01*
X114831809Y-96972381D02*
X114831809Y-95972381D01*
X114736571Y-96115238D01*
X114641333Y-96210476D01*
X114546095Y-96258095D01*
X115736571Y-95972381D02*
X115831810Y-95972381D01*
X115927048Y-96020000D01*
X115974667Y-96067619D01*
X116022286Y-96162857D01*
X116069905Y-96353333D01*
X116069905Y-96591429D01*
X116022286Y-96781905D01*
X115974667Y-96877143D01*
X115927048Y-96924762D01*
X115831810Y-96972381D01*
X115736571Y-96972381D01*
X115641333Y-96924762D01*
X115593714Y-96877143D01*
X115546095Y-96781905D01*
X115498476Y-96591429D01*
X115498476Y-96353333D01*
X115546095Y-96162857D01*
X115593714Y-96067619D01*
X115641333Y-96020000D01*
X115736571Y-95972381D01*
X114165143Y-94940381D02*
X113831809Y-94464190D01*
X113593714Y-94940381D02*
X113593714Y-93940381D01*
X113974667Y-93940381D01*
X114069905Y-93988000D01*
X114117524Y-94035619D01*
X114165143Y-94130857D01*
X114165143Y-94273714D01*
X114117524Y-94368952D01*
X114069905Y-94416571D01*
X113974667Y-94464190D01*
X113593714Y-94464190D01*
X115117524Y-94940381D02*
X114546095Y-94940381D01*
X114831809Y-94940381D02*
X114831809Y-93940381D01*
X114736571Y-94083238D01*
X114641333Y-94178476D01*
X114546095Y-94226095D01*
X116069905Y-94940381D02*
X115498476Y-94940381D01*
X115784190Y-94940381D02*
X115784190Y-93940381D01*
X115688952Y-94083238D01*
X115593714Y-94178476D01*
X115498476Y-94226095D01*
X98552095Y-88352381D02*
X98552095Y-89161905D01*
X98599714Y-89257143D01*
X98647333Y-89304762D01*
X98742571Y-89352381D01*
X98933048Y-89352381D01*
X99028286Y-89304762D01*
X99075905Y-89257143D01*
X99123524Y-89161905D01*
X99123524Y-88352381D01*
X100123524Y-89352381D02*
X99552095Y-89352381D01*
X99837809Y-89352381D02*
X99837809Y-88352381D01*
X99742571Y-88495238D01*
X99647333Y-88590476D01*
X99552095Y-88638095D01*
X84074095Y-110386881D02*
X84074095Y-111196405D01*
X84121714Y-111291643D01*
X84169333Y-111339262D01*
X84264571Y-111386881D01*
X84455048Y-111386881D01*
X84550286Y-111339262D01*
X84597905Y-111291643D01*
X84645524Y-111196405D01*
X84645524Y-110386881D01*
X85074095Y-110482119D02*
X85121714Y-110434500D01*
X85216952Y-110386881D01*
X85455048Y-110386881D01*
X85550286Y-110434500D01*
X85597905Y-110482119D01*
X85645524Y-110577357D01*
X85645524Y-110672595D01*
X85597905Y-110815452D01*
X85026476Y-111386881D01*
X85645524Y-111386881D01*
D15*
X101110143Y-100320929D02*
X101110143Y-101554643D01*
X101164571Y-101699786D01*
X101219000Y-101772357D01*
X101327857Y-101844929D01*
X101545571Y-101844929D01*
X101654429Y-101772357D01*
X101708857Y-101699786D01*
X101763286Y-101554643D01*
X101763286Y-100320929D01*
X102198715Y-100320929D02*
X102906286Y-100320929D01*
X102525286Y-100901500D01*
X102688572Y-100901500D01*
X102797429Y-100974071D01*
X102851858Y-101046643D01*
X102906286Y-101191786D01*
X102906286Y-101554643D01*
X102851858Y-101699786D01*
X102797429Y-101772357D01*
X102688572Y-101844929D01*
X102362000Y-101844929D01*
X102253143Y-101772357D01*
X102198715Y-101699786D01*
X91709724Y-93832438D02*
X91709724Y-94613790D01*
X91748429Y-94705714D01*
X91787133Y-94751676D01*
X91864543Y-94797638D01*
X92019362Y-94797638D01*
X92096771Y-94751676D01*
X92135476Y-94705714D01*
X92174181Y-94613790D01*
X92174181Y-93832438D01*
X92909572Y-94154171D02*
X92909572Y-94797638D01*
X92716048Y-93786476D02*
X92522524Y-94475905D01*
X93025686Y-94475905D01*
D13*
X95837476Y-103782881D02*
X96504143Y-104782881D01*
X96504143Y-103782881D02*
X95837476Y-104782881D01*
X97408905Y-104782881D02*
X96837476Y-104782881D01*
X97123190Y-104782881D02*
X97123190Y-103782881D01*
X97027952Y-103925738D01*
X96932714Y-104020976D01*
X96837476Y-104068595D01*
M02*
